<?xml version="1.0" encoding="UTF-8"?>
<svg xmlns="http://www.w3.org/2000/svg" width="1340" height="800" viewBox="0 0 1340 800" role="img" aria-label="Architecture">
  <defs>
    <linearGradient id="bg" x1="0%" y1="0%" x2="100%" y2="100%">
      <stop offset="0%" stop-color="#fffaf7"/>
      <stop offset="100%" stop-color="#fff1f4"/>
    </linearGradient>
    <marker id="arrow" viewBox="0 0 10 10" refX="9" refY="5" markerWidth="8" markerHeight="8" orient="auto-start-reverse">
      <path d="M 0 0 L 10 5 L 0 10 z" fill="#ff8ca0"/>
    </marker>
  </defs>
  <rect width="1340" height="800" rx="28" ry="28" fill="url(#bg)"/>
  <text x="40" y="56" font-family="-apple-system, BlinkMacSystemFont, 'Segoe UI', 'PingFang SC', 'Hiragino Sans GB', 'Microsoft YaHei', sans-serif" font-size="28" font-weight="700" fill="#1f2329">Architecture</text>
  <path d="M 270 240 L 305 240 L 305 235 L 340 235" fill="none" stroke="#ff8ca0" stroke-width="3" marker-end="url(#arrow)"/>
<path d="M 570 235 L 605 235 L 605 235 L 640 235" fill="none" stroke="#ff8ca0" stroke-width="3" marker-end="url(#arrow)"/>
<path d="M 960 235 L 1000 235 L 1000 200 L 1040 200" fill="none" stroke="#ff8ca0" stroke-width="3" marker-end="url(#arrow)"/>
<path d="M 455 310 L 455 332.5 L 455 332.5 L 455 355" fill="none" stroke="#ff8ca0" stroke-width="3" marker-end="url(#arrow)"/>
<path d="M 340 422.5 L 305 422.5 L 305 240 L 270 240" fill="none" stroke="#ff8ca0" stroke-width="3" marker-end="url(#arrow)"/>
<path d="M 270 240 L 455 240 L 455 485 L 640 485" fill="none" stroke="#ff8ca0" stroke-width="3" marker-end="url(#arrow)"/>
<path d="M 960 485 L 1000 485 L 1000 490 L 1040 490" fill="none" stroke="#ff8ca0" stroke-width="3" marker-end="url(#arrow)"/>
<path d="M 545 610 L 545 460 L 455 460 L 455 310" fill="none" stroke="#cfd4dc" stroke-width="3" marker-end="url(#arrow)"/>
<path d="M 750 665 L 695 665 L 695 485 L 640 485" fill="none" stroke="#cfd4dc" stroke-width="3" marker-end="url(#arrow)"/>
<path d="M 545 610 L 545 550 L 455 550 L 455 490" fill="none" stroke="#cfd4dc" stroke-width="3" marker-end="url(#arrow)"/>
  
    <g>
      <rect x="60" y="170" width="210" height="140" rx="18" ry="18" fill="#fff5f6" stroke="#ff2442" stroke-width="2"/>
      <text text-anchor="middle" font-family="-apple-system, BlinkMacSystemFont, 'Segoe UI', 'PingFang SC', 'Hiragino Sans GB', 'Microsoft YaHei', sans-serif" font-size="14" font-weight="600" fill="#1f2329"><tspan x="165" y="203.95">Mobile browser</tspan><tspan x="165" y="222.85">index.html</tspan><tspan x="165" y="241.75">styles.css</tspan><tspan x="165" y="260.65">app.js</tspan><tspan x="165" y="279.55">lib/i18n.js</tspan></text>
    </g>

    <g>
      <rect x="340" y="160" width="230" height="150" rx="18" ry="18" fill="#fff1f4" stroke="#ff8ca0" stroke-width="2"/>
      <text text-anchor="middle" font-family="-apple-system, BlinkMacSystemFont, 'Segoe UI', 'PingFang SC', 'Hiragino Sans GB', 'Microsoft YaHei', sans-serif" font-size="14" font-weight="600" fill="#1f2329"><tspan x="455" y="208.39999999999998">POST /api/capture</tspan><tspan x="455" y="227.29999999999998">read body</tspan><tspan x="455" y="246.2">validate input</tspan><tspan x="455" y="265.09999999999997">return normalized JSON</tspan></text>
    </g>

    <g>
      <rect x="640" y="120" width="320" height="230" rx="18" ry="18" fill="#ffffff" stroke="#d9dce2" stroke-width="2"/>
      <text text-anchor="middle" font-family="-apple-system, BlinkMacSystemFont, 'Segoe UI', 'PingFang SC', 'Hiragino Sans GB', 'Microsoft YaHei', sans-serif" font-size="14" font-weight="600" fill="#1f2329"><tspan x="800" y="180.04999999999998">lib/xhs.js</tspan><tspan x="800" y="198.95">extract URL from pasted text</tspan><tspan x="800" y="217.85">fetch public page</tspan><tspan x="800" y="236.75">parse window.__INITIAL_STATE__</tspan><tspan x="800" y="255.64999999999998">normalize title, caption, tags,</tspan><tspan x="800" y="274.55">stats, media</tspan><tspan x="800" y="293.45">build same-origin media URLs</tspan></text>
    </g>

    <g>
      <rect x="1040" y="145" width="240" height="110" rx="18" ry="18" fill="#ffffff" stroke="#d9dce2" stroke-width="2"/>
      <text text-anchor="middle" font-family="-apple-system, BlinkMacSystemFont, 'Segoe UI', 'PingFang SC', 'Hiragino Sans GB', 'Microsoft YaHei', sans-serif" font-size="14" font-weight="600" fill="#1f2329"><tspan x="1160" y="192.29999999999998">Public RedNote page</tspan><tspan x="1160" y="211.2">window.__INITIAL_STATE__</tspan></text>
    </g>

    <g>
      <rect x="640" y="420" width="320" height="130" rx="18" ry="18" fill="#fff1f4" stroke="#ff8ca0" stroke-width="2"/>
      <text text-anchor="middle" font-family="-apple-system, BlinkMacSystemFont, 'Segoe UI', 'PingFang SC', 'Hiragino Sans GB', 'Microsoft YaHei', sans-serif" font-size="14" font-weight="600" fill="#1f2329"><tspan x="800" y="458.4">GET /api/media</tspan><tspan x="800" y="477.29999999999995">same-origin media proxy</tspan><tspan x="800" y="496.2">supports preview, save, and Range</tspan><tspan x="800" y="515.1">requests</tspan></text>
    </g>

    <g>
      <rect x="1040" y="430" width="240" height="120" rx="18" ry="18" fill="#ffffff" stroke="#d9dce2" stroke-width="2"/>
      <text text-anchor="middle" font-family="-apple-system, BlinkMacSystemFont, 'Segoe UI', 'PingFang SC', 'Hiragino Sans GB', 'Microsoft YaHei', sans-serif" font-size="14" font-weight="600" fill="#1f2329"><tspan x="1160" y="463.4">XHS media CDN</tspan><tspan x="1160" y="482.29999999999995">images</tspan><tspan x="1160" y="501.2">videos</tspan><tspan x="1160" y="520.1">live-photo motion streams</tspan></text>
    </g>

    <g>
      <rect x="340" y="610" width="410" height="110" rx="18" ry="18" fill="#f7f8fa" stroke="#cfd4dc" stroke-width="2"/>
      <text text-anchor="middle" font-family="-apple-system, BlinkMacSystemFont, 'Segoe UI', 'PingFang SC', 'Hiragino Sans GB', 'Microsoft YaHei', sans-serif" font-size="14" font-weight="600" fill="#616977"><tspan x="545" y="638.4000000000001">Vercel serverless deployment</tspan><tspan x="545" y="657.3000000000001">no DB</tspan><tspan x="545" y="676.2">no cookies</tspan><tspan x="545" y="695.1000000000001">no history</tspan></text>
    </g>

    <g>
      <rect x="340" y="355" width="230" height="135" rx="18" ry="18" fill="#fff5f6" stroke="#ff2442" stroke-width="2"/>
      <text text-anchor="middle" font-family="-apple-system, BlinkMacSystemFont, 'Segoe UI', 'PingFang SC', 'Hiragino Sans GB', 'Microsoft YaHei', sans-serif" font-size="14" font-weight="600" fill="#1f2329"><tspan x="455" y="386.45">Normalized response</tspan><tspan x="455" y="405.34999999999997">title, description, tags,</tspan><tspan x="455" y="424.25">author, publish time, IP</tspan><tspan x="455" y="443.15">location, interactions,</tspan><tspan x="455" y="462.05">media</tspan></text>
    </g>
</svg>