<?xml version="1.0" encoding="UTF-8"?>
<svg xmlns="http://www.w3.org/2000/svg" width="1450" height="710" viewBox="0 0 1450 710" role="img" aria-label="User flow">
  <defs>
    <linearGradient id="bg" x1="0%" y1="0%" x2="100%" y2="100%">
      <stop offset="0%" stop-color="#fffaf7"/>
      <stop offset="100%" stop-color="#fff1f4"/>
    </linearGradient>
    <marker id="arrow" viewBox="0 0 10 10" refX="9" refY="5" markerWidth="8" markerHeight="8" orient="auto-start-reverse">
      <path d="M 0 0 L 10 5 L 0 10 z" fill="#ff8ca0"/>
    </marker>
  </defs>
  <rect width="1450" height="710" rx="28" ry="28" fill="url(#bg)"/>
  <text x="40" y="56" font-family="-apple-system, BlinkMacSystemFont, 'Segoe UI', 'PingFang SC', 'Hiragino Sans GB', 'Microsoft YaHei', sans-serif" font-size="28" font-weight="700" fill="#1f2329">User flow</text>
  <path d="M 190 142 L 210 142 L 210 142 L 230 142" fill="none" stroke="#ff8ca0" stroke-width="3" marker-end="url(#arrow)"/>
<path d="M 440 142 L 465 142 L 465 142 L 490 142" fill="none" stroke="#ff8ca0" stroke-width="3" marker-end="url(#arrow)"/>
<path d="M 610 142 L 635 142 L 635 142 L 660 142" fill="none" stroke="#ff8ca0" stroke-width="3" marker-end="url(#arrow)"/>
<path d="M 830 142 L 855 142 L 855 142 L 880 142" fill="none" stroke="#ff8ca0" stroke-width="3" marker-end="url(#arrow)"/>
<path d="M 1070 142 L 1095 142 L 1095 142 L 1120 142" fill="none" stroke="#ff8ca0" stroke-width="3" marker-end="url(#arrow)"/>
<path d="M 1120 142 L 1105 142 L 1105 292 L 1090 292" fill="none" stroke="#ff8ca0" stroke-width="3" marker-end="url(#arrow)"/>
<path d="M 1090 292 L 1115 292 L 1115 287 L 1140 287" fill="none" stroke="#ff8ca0" stroke-width="3" marker-end="url(#arrow)"/>
<path d="M 1140 287 L 1135 287 L 1135 455 L 1130 455" fill="none" stroke="#ff8ca0" stroke-width="3" marker-end="url(#arrow)"/>
<path d="M 1130 455 L 1150 455 L 1150 455 L 1170 455" fill="none" stroke="#ff8ca0" stroke-width="3" marker-end="url(#arrow)"/>
<path d="M 1170 455 L 1135 455 L 1135 595 L 1100 595" fill="none" stroke="#cfd4dc" stroke-width="3" marker-end="url(#arrow)"/>
  
    <g>
      <rect x="40" y="110" width="150" height="64" rx="18" ry="18" fill="#fff5f6" stroke="#ff2442" stroke-width="2"/>
      <text text-anchor="middle" font-family="-apple-system, BlinkMacSystemFont, 'Segoe UI', 'PingFang SC', 'Hiragino Sans GB', 'Microsoft YaHei', sans-serif" font-size="14" font-weight="600" fill="#1f2329"><tspan x="115" y="143.75">Open on phone</tspan></text>
    </g>

    <g>
      <rect x="230" y="110" width="210" height="64" rx="18" ry="18" fill="#ffffff" stroke="#d9dce2" stroke-width="2"/>
      <text text-anchor="middle" font-family="-apple-system, BlinkMacSystemFont, 'Segoe UI', 'PingFang SC', 'Hiragino Sans GB', 'Microsoft YaHei', sans-serif" font-size="14" font-weight="600" fill="#1f2329"><tspan x="335" y="134.29999999999998">Paste public link</tspan><tspan x="335" y="153.2">or share text</tspan></text>
    </g>

    <g>
      <rect x="490" y="110" width="120" height="64" rx="18" ry="18" fill="#ff2442" stroke="#ff2442" stroke-width="2"/>
      <text text-anchor="middle" font-family="-apple-system, BlinkMacSystemFont, 'Segoe UI', 'PingFang SC', 'Hiragino Sans GB', 'Microsoft YaHei', sans-serif" font-size="14" font-weight="700" fill="#ffffff"><tspan x="550" y="143.75">Tap capture</tspan></text>
    </g>

    <g>
      <rect x="660" y="110" width="170" height="64" rx="18" ry="18" fill="#fff1f4" stroke="#ff8ca0" stroke-width="2"/>
      <text text-anchor="middle" font-family="-apple-system, BlinkMacSystemFont, 'Segoe UI', 'PingFang SC', 'Hiragino Sans GB', 'Microsoft YaHei', sans-serif" font-size="14" font-weight="600" fill="#1f2329"><tspan x="745" y="143.75">POST /api/capture</tspan></text>
    </g>

    <g>
      <rect x="880" y="110" width="190" height="64" rx="18" ry="18" fill="#ffffff" stroke="#d9dce2" stroke-width="2"/>
      <text text-anchor="middle" font-family="-apple-system, BlinkMacSystemFont, 'Segoe UI', 'PingFang SC', 'Hiragino Sans GB', 'Microsoft YaHei', sans-serif" font-size="14" font-weight="600" fill="#1f2329"><tspan x="975" y="134.29999999999998">Validate input</tspan><tspan x="975" y="153.2">extract public URL</tspan></text>
    </g>

    <g>
      <rect x="1120" y="110" width="160" height="64" rx="18" ry="18" fill="#ffffff" stroke="#d9dce2" stroke-width="2"/>
      <text text-anchor="middle" font-family="-apple-system, BlinkMacSystemFont, 'Segoe UI', 'PingFang SC', 'Hiragino Sans GB', 'Microsoft YaHei', sans-serif" font-size="14" font-weight="600" fill="#1f2329"><tspan x="1200" y="134.29999999999998">Fetch public</tspan><tspan x="1200" y="153.2">page</tspan></text>
    </g>

    <g>
      <rect x="880" y="250" width="210" height="84" rx="18" ry="18" fill="#ffffff" stroke="#d9dce2" stroke-width="2"/>
      <text text-anchor="middle" font-family="-apple-system, BlinkMacSystemFont, 'Segoe UI', 'PingFang SC', 'Hiragino Sans GB', 'Microsoft YaHei', sans-serif" font-size="14" font-weight="600" fill="#1f2329"><tspan x="985" y="284.3">Parse and normalize</tspan><tspan x="985" y="303.2">note state</tspan></text>
    </g>

    <g>
      <rect x="1140" y="240" width="250" height="94" rx="18" ry="18" fill="#fff5f6" stroke="#ff2442" stroke-width="2"/>
      <text text-anchor="middle" font-family="-apple-system, BlinkMacSystemFont, 'Segoe UI', 'PingFang SC', 'Hiragino Sans GB', 'Microsoft YaHei', sans-serif" font-size="14" font-weight="600" fill="#1f2329"><tspan x="1265" y="269.84999999999997">Render clean result</tspan><tspan x="1265" y="288.74999999999994">title, caption, tags,</tspan><tspan x="1265" y="307.65">stats, media</tspan></text>
    </g>

    <g>
      <rect x="880" y="410" width="250" height="90" rx="18" ry="18" fill="#fff1f4" stroke="#ff8ca0" stroke-width="2"/>
      <text text-anchor="middle" font-family="-apple-system, BlinkMacSystemFont, 'Segoe UI', 'PingFang SC', 'Hiragino Sans GB', 'Microsoft YaHei', sans-serif" font-size="14" font-weight="600" fill="#1f2329"><tspan x="1005" y="437.84999999999997">GET /api/media</tspan><tspan x="1005" y="456.74999999999994">same-origin preview +</tspan><tspan x="1005" y="475.65">download</tspan></text>
    </g>

    <g>
      <rect x="1170" y="410" width="220" height="90" rx="18" ry="18" fill="#ffffff" stroke="#d9dce2" stroke-width="2"/>
      <text text-anchor="middle" font-family="-apple-system, BlinkMacSystemFont, 'Segoe UI', 'PingFang SC', 'Hiragino Sans GB', 'Microsoft YaHei', sans-serif" font-size="14" font-weight="600" fill="#1f2329"><tspan x="1280" y="428.4">Open original</tspan><tspan x="1280" y="447.29999999999995">save one</tspan><tspan x="1280" y="466.2">save all</tspan><tspan x="1280" y="485.09999999999997">reload preview</tspan></text>
    </g>

    <g>
      <rect x="870" y="560" width="230" height="70" rx="18" ry="18" fill="#f7f8fa" stroke="#cfd4dc" stroke-width="2"/>
      <text text-anchor="middle" font-family="-apple-system, BlinkMacSystemFont, 'Segoe UI', 'PingFang SC', 'Hiragino Sans GB', 'Microsoft YaHei', sans-serif" font-size="14" font-weight="600" fill="#616977"><tspan x="985" y="587.3000000000001">Refresh clears</tspan><tspan x="985" y="606.2">the current result</tspan></text>
    </g>
</svg>